<svg width="72" height="73" viewBox="0 0 72 73" fill="none" xmlns="http://www.w3.org/2000/svg">
<path d="M36 72.6035C55.8823 72.6035 72 56.4858 72 36.6035C72 16.7213 55.8823 0.603516 36 0.603516C16.1177 0.603516 0 16.7213 0 36.6035C0 56.4858 16.1177 72.6035 36 72.6035Z" fill="url(#paint0_linear_179_748)"/>
<path d="M36 1.32352C55.4544 1.32352 71.28 17.1491 71.28 36.6035C71.28 56.0579 55.4544 71.8835 36 71.8835C16.5456 71.8835 0.72 56.0579 0.72 36.6035C0.72 17.1491 16.5456 1.32352 36 1.32352ZM36 0.603516C16.1177 0.603516 0 16.7212 0 36.6035C0 56.4858 16.1177 72.6035 36 72.6035C55.8823 72.6035 72 56.4858 72 36.6035C72 16.7212 55.8823 0.603516 36 0.603516Z" fill="url(#paint1_radial_179_748)"/>
<path d="M35.9997 64.6978C51.5158 64.6978 64.0941 52.1195 64.0941 36.6034C64.0941 21.0873 51.5158 8.50903 35.9997 8.50903C20.4836 8.50903 7.90527 21.0873 7.90527 36.6034C7.90527 52.1195 20.4836 64.6978 35.9997 64.6978Z" fill="url(#paint2_radial_179_748)"/>
<path d="M35.9997 64.6978C51.5158 64.6978 64.0941 52.1195 64.0941 36.6034C64.0941 21.0873 51.5158 8.50903 35.9997 8.50903C20.4836 8.50903 7.90527 21.0873 7.90527 36.6034C7.90527 52.1195 20.4836 64.6978 35.9997 64.6978Z" fill="url(#paint3_radial_179_748)"/>
<path d="M35.9997 9.22903C51.095 9.22903 63.3741 21.5102 63.3741 36.6034C63.3741 51.6967 51.0929 63.9778 35.9997 63.9778C20.9064 63.9778 8.62527 51.6967 8.62527 36.6034C8.62527 21.5102 20.9044 9.22903 35.9997 9.22903ZM35.9997 8.50903C20.4826 8.50903 7.90527 21.0885 7.90527 36.6034C7.90527 52.1184 20.4847 64.6978 35.9997 64.6978C51.5167 64.6978 64.0941 52.1184 64.0941 36.6034C64.0941 21.0885 51.5167 8.50903 35.9997 8.50903Z" fill="url(#paint4_linear_179_748)"/>
<path d="M36 8.50906C51.517 8.50906 64.0944 21.0885 64.0944 36.6035C64.0944 52.1184 51.517 64.6979 36 64.6979C20.4829 64.6979 7.90555 52.1184 7.90555 36.6035C7.90555 21.0885 20.4829 8.50906 36 8.50906ZM36 7.78906C20.1106 7.78906 7.18555 20.7162 7.18555 36.6035C7.18555 52.4908 20.1126 65.4179 36 65.4179C51.8873 65.4179 64.8144 52.4908 64.8144 36.6035C64.8144 20.7162 51.8893 7.78906 36 7.78906Z" fill="url(#paint5_linear_179_748)"/>
<path d="M34.3913 29.959C34.2905 30.7201 33.8852 32.3309 34.0848 33.3018C34.3419 34.5546 35.3026 34.4888 35.6564 33.8696C35.8498 33.5322 35.9588 32.9604 35.8086 32.3165C35.6173 31.4895 35.1257 30.57 34.3913 29.959ZM35.2491 33.5405C35.1298 33.81 34.7698 33.81 34.6361 33.2113C34.5188 32.6868 34.6875 31.6602 34.7389 31.2118C34.9878 31.5965 35.1648 32.0058 35.2656 32.444C35.3869 32.9624 35.3314 33.3553 35.2491 33.5405Z" fill="url(#paint6_linear_179_748)"/>
<path d="M34.0788 35.8711C33.69 35.8732 33.1408 36.0645 32.6574 36.515C32.0361 37.093 31.4848 37.9797 31.3223 38.9218C32.032 38.6277 33.6283 38.1751 34.371 37.5168C35.3316 36.6693 34.7927 35.869 34.0788 35.8711ZM34.0192 37.0848C33.6222 37.4489 32.6512 37.8151 32.2356 37.9941C32.4455 37.5868 32.7108 37.2288 33.0379 36.9223C33.4267 36.5582 33.795 36.4101 33.9986 36.3895C34.2907 36.3586 34.4718 36.6693 34.0192 37.0848Z" fill="url(#paint7_linear_179_748)"/>
<path d="M49.773 21.0454C49.8039 20.9096 49.7812 20.7656 49.7113 20.6463C49.6743 20.5846 49.627 20.527 49.5652 20.4818C49.341 20.311 49.0221 20.3357 48.8288 20.5414L48.5182 20.8664L47.936 21.101C47.757 21.0351 47.5492 21.0269 47.3373 21.0804C47.2242 21.1092 47.1892 21.103 47.0884 21.0825C46.8704 21.0393 46.642 21.0125 46.2738 21.1339C46.1463 21.1277 45.9961 21.1462 45.7616 21.2244C45.4695 21.3211 45.2946 21.5453 45.1691 21.7099C45.1527 21.7305 45.1342 21.7551 45.1156 21.7778C44.3154 21.9814 43.9678 22.4237 43.8176 22.7673C43.7723 22.8701 43.7374 22.9791 43.7168 23.0902C43.5604 22.9771 43.402 22.8783 43.2478 22.8084C42.3179 22.3826 41.1207 22.5595 40.269 23.2486C39.3618 23.983 38.9998 25.1124 39.2775 26.3508C39.3886 26.8445 39.5881 27.3403 39.8926 27.8649C40.522 28.9572 41.4765 29.9652 42.4002 30.9403C43.2148 31.8002 43.9842 32.6148 44.4224 33.3759C44.4491 33.4232 44.4759 33.4706 44.5006 33.5158C45.0724 34.602 44.9655 35.4002 44.1858 35.8898C43.8999 36.0687 43.6139 36.149 43.363 36.1778C43.6386 35.3734 43.76 34.2461 43.1531 33.197C43.0338 32.9892 42.8898 32.7938 42.7232 32.6107C41.5815 31.3599 40.3719 31.6397 39.8905 31.9606C39.6766 32.1046 39.5881 32.3741 39.6786 32.6168C39.6889 32.6456 39.7033 32.6744 39.7177 32.7012C39.8267 32.8925 40.0427 33.0015 40.267 32.9748C40.773 32.9131 41.3326 33.2504 41.6576 33.812C41.7913 34.0445 42.139 34.7913 41.6432 35.6079C41.3305 35.3611 41.0713 35.0834 40.8676 34.8653C40.8327 34.8283 40.8018 34.7933 40.771 34.7625C40.7566 34.746 40.738 34.7254 40.7134 34.7007C39.7671 33.6619 38.8393 33.0776 37.9486 32.9542C37.9424 32.2712 37.7449 31.5574 37.3623 30.8601C36.9076 30.031 36.2123 29.274 35.4059 28.7247C35.266 28.6301 35.1426 28.5561 35.0233 28.4943C34.7147 26.1492 33.1678 24.9334 31.7792 24.5775C30.117 24.1517 28.4384 24.7956 27.5024 26.2212C27.4222 26.3426 27.344 26.4722 27.2679 26.6038C26.5643 27.8217 26.1611 29.239 25.7703 30.6111C25.437 31.7775 25.1243 32.8781 24.6553 33.7647C24.6286 33.8162 24.5998 33.8676 24.571 33.917C24.2583 34.4559 23.9847 34.7542 23.6926 34.8489C23.5527 34.8941 23.3696 34.9065 23.1515 34.7583C22.8574 34.5588 22.9294 34.1474 23.1886 33.3595C23.2647 33.1311 23.3346 32.9131 23.3696 32.7135C23.4601 32.1931 23.3572 31.7076 23.0775 31.3476C22.8121 31.004 22.4089 30.7942 21.9399 30.7551C21.4935 30.7181 20.8475 30.8662 20.3106 31.7961C20.2633 31.8763 20.2263 31.9503 20.1954 32.0079C20.1131 31.8043 19.9959 31.5307 19.7387 31.3476C19.5371 31.2056 19.3972 31.1419 19.2718 31.1131C18.955 30.893 18.7287 30.8518 18.5086 30.8271C18.4078 30.8168 18.3666 30.8107 18.2596 30.751C18.058 30.6358 17.842 30.5906 17.6384 30.6132L17.1694 30.245L16.9616 29.8459C16.8299 29.5928 16.5275 29.4797 16.2622 29.5846C16.1428 29.6319 16.0462 29.7183 15.9865 29.8232C15.9433 29.8973 15.9186 29.9796 15.9124 30.0639C15.7787 30.1051 15.6656 30.1956 15.5977 30.317C15.5607 30.3787 15.538 30.4507 15.5278 30.5247C15.4928 30.8045 15.6738 31.0678 15.9474 31.1337L16.3835 31.2406L16.8772 31.6294C16.9102 31.8187 17.0068 31.9997 17.1591 32.1581C17.2414 32.2424 17.2516 32.2754 17.2866 32.372C17.3586 32.5819 17.4491 32.7938 17.7371 33.0509C17.7947 33.164 17.8873 33.2854 18.0724 33.4479C18.3028 33.6537 18.5826 33.6907 18.7883 33.7195C18.813 33.7236 18.8459 33.7277 18.8727 33.7318C19.4487 34.3222 20.0062 34.4025 20.3785 34.3613C20.4916 34.349 20.6027 34.3243 20.7097 34.2873C20.6891 34.4806 20.685 34.6658 20.6994 34.8344C20.794 35.8527 21.547 36.8011 22.5694 37.194C23.6576 37.6136 24.8178 37.3606 25.7518 36.5028C26.1241 36.1613 26.4532 35.7375 26.7556 35.213C27.3851 34.1206 27.7822 32.7897 28.1668 31.5039C28.5042 30.3684 28.8251 29.2966 29.2654 28.5334C29.2921 28.4861 29.3209 28.4388 29.3476 28.3956C30.0018 27.3588 30.7465 27.0502 31.5611 27.4802C31.8574 27.6365 32.0713 27.8463 32.2215 28.05C31.3863 28.2125 30.3495 28.6733 29.7447 29.7204C29.6254 29.9282 29.5266 30.1503 29.4526 30.3869C28.9403 31.9997 29.7858 32.909 30.3063 33.1641C30.5367 33.2772 30.8164 33.2175 30.981 33.0201C31.0016 32.9954 31.018 32.9707 31.0345 32.9439C31.1435 32.7526 31.1332 32.5119 30.9975 32.3309C30.691 31.9236 30.7033 31.2715 31.0283 30.7078C31.162 30.4754 31.6372 29.8006 32.5897 29.8232C32.5321 30.2182 32.421 30.5803 32.3346 30.8662C32.3202 30.9135 32.3058 30.9588 32.2935 31.002C32.2873 31.0226 32.2791 31.0493 32.2688 31.0822C31.843 32.4214 31.7998 33.5158 32.1392 34.349C31.5508 34.6966 31.0324 35.2233 30.619 35.9042C30.1294 36.7126 29.8187 37.6939 29.7488 38.6669C29.7364 38.8356 29.7344 38.9775 29.7406 39.1133C27.8644 40.5533 27.5847 42.5014 27.9714 43.8818C28.4322 45.5337 29.8311 46.6651 31.5323 46.7638C31.6784 46.7721 31.8286 46.7762 31.9808 46.7762C33.3858 46.7762 34.8176 46.4162 36.2 46.0706C37.3767 45.7743 38.4875 45.4966 39.4873 45.4596C39.5449 45.4575 39.6046 45.4555 39.6601 45.4555C40.2834 45.4555 40.6784 45.5439 40.9047 45.7496C41.0137 45.8484 41.1166 46.0006 41.096 46.2619C41.0692 46.6157 40.6784 46.7597 39.8658 46.9284C39.6292 46.9778 39.4071 47.0251 39.2158 47.095C38.72 47.2761 38.3518 47.6093 38.179 48.031C38.0144 48.4322 38.0329 48.8868 38.2345 49.3126C38.4258 49.7199 38.8784 50.2034 39.9502 50.2034C40.0427 50.2034 40.125 50.1992 40.1908 50.1972C40.0551 50.372 39.8761 50.6086 39.8473 50.9234C39.8247 51.1702 39.8411 51.3204 39.8782 51.4459C39.8452 51.8306 39.9234 52.0466 40.0119 52.2502C40.053 52.3428 40.0695 52.3819 40.0695 52.5033C40.0695 52.7357 40.1394 52.9455 40.2608 53.1101L40.1764 53.7005L39.9337 54.079C39.7794 54.3197 39.8329 54.6386 40.0571 54.8155C40.1579 54.8957 40.2793 54.9348 40.4007 54.9348C40.485 54.9348 40.5694 54.9163 40.6475 54.8772C40.7504 54.9718 40.8862 55.0233 41.024 55.0233C41.096 55.0233 41.17 55.0089 41.24 54.98C41.4992 54.871 41.637 54.583 41.5588 54.3115L41.4334 53.8795L41.5218 53.2582C41.6679 53.1348 41.779 52.962 41.8407 52.7501C41.8715 52.637 41.8942 52.6123 41.962 52.5341C42.1081 52.3654 42.2459 52.1823 42.3241 51.8038C42.394 51.6969 42.4516 51.557 42.501 51.3142C42.5648 51.0118 42.4558 50.7506 42.3776 50.5572C42.3673 50.5346 42.3549 50.5037 42.3447 50.477C42.5668 49.6829 42.3591 49.1604 42.1369 48.858C42.069 48.7675 41.9929 48.6831 41.9065 48.6091C42.0834 48.5309 42.248 48.4425 42.3858 48.3437C43.219 47.7533 43.6653 46.628 43.4946 45.5439C43.3136 44.3919 42.5154 43.5135 41.3038 43.133C40.8203 42.9807 40.2916 42.9087 39.6848 42.9087C38.4238 42.9087 37.0743 43.2317 35.768 43.5423C34.616 43.818 33.5257 44.0772 32.6473 44.0772C32.5918 44.0772 32.5383 44.0751 32.4868 44.0731C31.2608 44.0237 30.621 43.5341 30.5881 42.6146C30.5758 42.2793 30.6498 41.9892 30.7506 41.7588C31.3081 42.4006 32.2256 43.0671 33.4352 43.0671C33.6738 43.0671 33.9166 43.0404 34.1572 42.9869C35.8091 42.6249 36.1753 41.4358 36.1362 40.8598C36.1198 40.6027 35.9284 40.3908 35.6754 40.3476C35.6446 40.3414 35.6137 40.3394 35.5828 40.3394C35.3627 40.3394 35.1591 40.471 35.0706 40.6788C34.8711 41.1478 34.2992 41.4646 33.6491 41.4646C33.3796 41.4646 32.5588 41.3906 32.1001 40.5554C32.4704 40.4072 32.8386 40.3229 33.1307 40.255C33.1801 40.2447 33.2254 40.2324 33.2686 40.2221C33.2891 40.218 33.3179 40.2118 33.3508 40.2036C34.723 39.9032 35.6939 39.3931 36.2452 38.6813C36.8398 39.0187 37.5556 39.2018 38.3518 39.2203C39.296 39.2409 40.2999 39.0187 41.1783 38.5929C41.3305 38.5188 41.4539 38.4488 41.5691 38.3769C43.7559 39.282 45.5806 38.5497 46.5844 37.5252C47.7838 36.2991 48.0656 34.5238 47.3003 32.9995C47.2345 32.8699 47.1625 32.7362 47.0864 32.6045C46.3828 31.3867 45.3563 30.3273 44.3648 29.3049C43.5214 28.4347 42.7232 27.6118 42.1904 26.7622C42.1595 26.7129 42.1287 26.6635 42.1019 26.6141C41.7892 26.0751 41.6699 25.6884 41.7337 25.388C41.7646 25.2461 41.8448 25.0795 42.0814 24.9663C42.4023 24.812 42.7211 25.0795 43.2745 25.6987C43.4349 25.8777 43.5872 26.0484 43.7435 26.178C44.1488 26.5154 44.6199 26.6697 45.0724 26.6079C45.5024 26.5503 45.885 26.3055 46.1545 25.9209C46.4116 25.5526 46.605 24.919 46.0681 23.9892C46.0208 23.909 45.9776 23.839 45.9426 23.7835C46.1607 23.8143 46.4548 23.8493 46.7428 23.7176C46.9671 23.6148 47.0905 23.5243 47.181 23.4317C47.5307 23.2671 47.6788 23.0923 47.8105 22.9133C47.8702 22.831 47.8948 22.7981 47.9997 22.7364C48.1993 22.6191 48.3474 22.4546 48.4297 22.2674L48.9831 22.0452L49.4315 22.0658C49.7175 22.0781 49.9643 21.8724 50.0055 21.5906C50.024 21.463 49.9972 21.3375 49.9376 21.2326C49.9026 21.1565 49.845 21.0927 49.773 21.0454ZM48.8946 21.4836L47.9483 21.8621C47.9751 21.9999 47.9031 22.1501 47.7262 22.253C47.2715 22.5183 47.4402 22.7179 46.8827 22.9544C46.7696 23.0018 46.8663 23.0491 46.5145 23.2095C46.2697 23.3227 45.9056 23.1746 45.7163 23.2137C45.5127 23.2569 45.0971 23.4811 45.4221 23.9933C45.5682 24.2237 46.1257 24.9931 45.704 25.5999C45.3358 26.1286 44.6919 26.2376 44.1056 25.748C43.5769 25.3058 42.8322 23.9871 41.8468 24.4623C40.8244 24.954 41.1227 26.0936 41.7255 27.0543C42.9968 29.0806 45.6279 30.8971 46.8066 33.2463C48.2548 36.1263 45.2103 39.498 41.5136 37.7391C41.3223 37.879 41.1639 37.9798 40.9396 38.0889C39.3515 38.8582 37.2964 38.9117 36.0745 37.8852C35.5047 39.2429 33.4887 39.5947 33.1431 39.677C32.7234 39.7757 32.0281 39.9135 31.3904 40.2756C32.0939 42.6022 34.9534 42.3759 35.5828 40.8927C35.5828 40.8927 35.661 42.0838 34.04 42.4397C32.3264 42.8162 31.1147 41.5119 30.7424 40.7693C30.3598 41.1663 30.0039 41.8267 30.0327 42.629C30.0697 43.6246 30.6951 44.5524 32.4642 44.6223C34.8649 44.717 38.5945 42.8594 41.1371 43.6575C43.4247 44.3755 43.3856 46.9469 42.0628 47.885C41.6267 48.1935 40.8183 48.4116 40.2916 48.4404C40.0263 48.4548 40.0098 48.5782 40.0324 48.6482C40.0612 48.7448 40.2052 48.7469 40.4356 48.7243C41.2791 48.642 42.1842 49.1336 41.781 50.405C41.7172 50.6025 42.0052 50.9336 41.9517 51.1949C41.8756 51.5734 41.8078 51.4911 41.7892 51.6125C41.6884 52.2091 41.4436 52.0857 41.2996 52.5917C41.24 52.7974 41.1186 52.8777 41.0055 52.8941L40.8594 53.9124L41.0199 54.4596L40.7586 53.9967L40.3986 54.3711L40.7051 53.8918L40.8512 52.8838C40.7175 52.8386 40.6249 52.6987 40.6228 52.495C40.6208 51.9684 40.3616 52.0157 40.4356 51.415C40.45 51.2937 40.3636 51.3533 40.3986 50.9686C40.4233 50.7012 40.7339 50.4585 40.7936 50.2754C40.8594 50.0779 40.8718 49.6068 40.2649 49.6315C39.9934 49.6418 39.0491 49.7405 38.7344 49.0719C38.4608 48.4877 38.6871 47.8767 39.405 47.6134C40.053 47.3768 41.565 47.3913 41.6473 46.2989C41.7316 45.1675 40.5961 44.8548 39.4626 44.898C37.0702 44.9865 34.184 46.3565 31.5591 46.2043C28.3417 46.0171 26.9428 41.6971 30.3145 39.3746C30.2878 39.138 30.2795 38.9529 30.298 38.7019C30.4256 36.943 31.4068 35.1348 32.9086 34.5897C32.0178 33.4171 32.7193 31.4957 32.8222 31.1563C32.9456 30.7449 33.176 30.0722 33.1801 29.3398C30.8123 28.7844 29.5801 31.3764 30.549 32.6621C30.549 32.6621 29.4772 32.1355 29.9792 30.5515C30.5099 28.879 32.2441 28.482 33.0731 28.5314C32.9209 28.0006 32.528 27.3629 31.8162 26.9864C30.9358 26.5195 29.8187 26.5976 28.8724 28.0952C27.5908 30.1277 27.3337 34.2852 25.3712 36.0893C23.6062 37.7124 21.3988 36.3917 21.2466 34.7789C21.1972 34.2461 21.4132 33.4377 21.6519 32.9686C21.7732 32.73 21.6745 32.6559 21.6025 32.6395C21.5038 32.6168 21.4318 32.7403 21.3351 32.9522C20.9854 33.7215 20.107 34.2605 19.208 33.2772C19.0681 33.1229 18.6382 33.2073 18.4386 33.0303C18.1486 32.7732 18.2535 32.7588 18.1588 32.6806C17.6939 32.2939 17.9223 32.1437 17.554 31.7673C17.4059 31.613 17.3977 31.4669 17.4388 31.362L16.6304 30.7263L16.077 30.5906L16.6078 30.5967L16.4658 30.0968L16.7291 30.6029L17.5294 31.2324C17.6343 31.1398 17.803 31.1275 17.9799 31.2303C18.4366 31.4916 18.5271 31.2447 19.0084 31.6089C19.1072 31.6829 19.099 31.5759 19.4137 31.8002C19.6338 31.9544 19.6873 32.3453 19.8148 32.4893C19.9527 32.6456 20.3559 32.8904 20.6377 32.3535C20.7632 32.1128 21.152 31.2447 21.8884 31.3085C22.5323 31.364 22.9479 31.8639 22.8162 32.6189C22.699 33.2998 21.9296 34.602 22.8327 35.2191C23.7707 35.8589 24.608 35.0299 25.1387 34.028C26.2578 31.9133 26.515 28.7268 27.9591 26.5318C29.7303 23.839 34.1716 24.7874 34.4967 28.8687C34.7147 28.9634 34.8793 29.0498 35.0871 29.1897C36.5476 30.1812 37.6215 31.9339 37.3438 33.5055C38.8043 33.3204 40.1168 34.89 40.3616 35.1492C40.6578 35.4619 41.1248 35.9967 41.7563 36.367C43.4206 34.5938 41.7934 32.2322 40.195 32.4276C40.195 32.4276 41.1886 31.7631 42.3076 32.9913C43.4905 34.2873 42.9659 35.9885 42.5113 36.6818C43.0462 36.8134 43.797 36.7929 44.4779 36.367C45.3214 35.8383 45.813 34.8324 44.9881 33.2628C43.869 31.1357 40.3966 28.8338 39.8164 26.2335C39.2939 23.8925 41.5403 22.6418 43.0132 23.3186C43.4987 23.5407 44.0912 24.1332 44.3792 24.5734C44.5252 24.7977 44.6384 24.7483 44.6898 24.6948C44.7577 24.6207 44.6877 24.4953 44.554 24.306C44.0624 23.6169 44.0356 22.5883 45.3358 22.3023C45.5394 22.2571 45.6814 21.8436 45.9344 21.7592C46.3006 21.6358 46.2635 21.7346 46.3787 21.6914C46.9465 21.4815 46.9629 21.7551 47.4731 21.6255C47.6809 21.5741 47.8105 21.6399 47.8825 21.7284L48.837 21.3458L49.232 20.9343L48.9625 21.391L49.4665 21.5165L48.8946 21.4836Z" fill="url(#paint8_linear_179_748)"/>
<path d="M36.6036 36.2354C36.799 36.5707 37.2392 36.9513 37.8708 37.1426C38.6833 37.3915 39.7243 37.4244 40.6232 37.0953C40.0143 36.6283 38.8232 35.4722 37.8811 35.1574C36.6673 34.7542 36.2456 35.6203 36.6036 36.2354ZM38.0333 36.6118C37.5231 36.4576 37.2104 36.2107 37.0911 36.0461C36.9183 35.8075 37.0973 35.4969 37.6836 35.68C38.1958 35.8425 39.0001 36.4987 39.3643 36.7702C38.9055 36.7949 38.4612 36.7435 38.0333 36.6118Z" fill="url(#paint9_linear_179_748)"/>
<defs>
<linearGradient id="paint0_linear_179_748" x1="17.7016" y1="26.0389" x2="67.0942" y2="54.5557" gradientUnits="userSpaceOnUse">
<stop offset="5.5409e-07" stop-color="#FABC16"/>
<stop offset="0.199" stop-color="#FBE083"/>
<stop offset="0.3363" stop-color="#FBF7CA"/>
<stop offset="0.5682" stop-color="#FFD543"/>
<stop offset="0.7366" stop-color="#FFD133"/>
<stop offset="0.7684" stop-color="#FCC333"/>
<stop offset="0.8145" stop-color="#F9B633"/>
<stop offset="0.8746" stop-color="#F7AE33"/>
<stop offset="1" stop-color="#F7AC33"/>
</linearGradient>
<radialGradient id="paint1_radial_179_748" cx="0" cy="0" r="1" gradientUnits="userSpaceOnUse" gradientTransform="translate(36 36.6035) scale(36)">
<stop offset="0.162" stop-color="#FBF7CA"/>
<stop offset="0.5668" stop-color="#FFD133"/>
<stop offset="1" stop-color="#E99123"/>
</radialGradient>
<radialGradient id="paint2_radial_179_748" cx="0" cy="0" r="1" gradientUnits="userSpaceOnUse" gradientTransform="translate(35.9997 28.0543) scale(38.7538)">
<stop offset="0.162" stop-color="#FBF7CA"/>
<stop offset="0.5668" stop-color="#FFD133"/>
<stop offset="1" stop-color="#E99123"/>
</radialGradient>
<radialGradient id="paint3_radial_179_748" cx="0" cy="0" r="1" gradientUnits="userSpaceOnUse" gradientTransform="translate(35.9991 36.6032) scale(28.0948)">
<stop stop-color="#F6D878" stop-opacity="0"/>
<stop offset="0.8637" stop-color="#F5CA1F" stop-opacity="0"/>
<stop offset="1" stop-color="#F17B21"/>
</radialGradient>
<linearGradient id="paint4_linear_179_748" x1="35.9997" y1="64.6985" x2="35.9997" y2="8.50835" gradientUnits="userSpaceOnUse">
<stop stop-color="#69361B"/>
<stop offset="1" stop-color="#A06327"/>
</linearGradient>
<linearGradient id="paint5_linear_179_748" x1="35.9999" y1="65.4185" x2="35.9999" y2="7.78836" gradientUnits="userSpaceOnUse">
<stop offset="0.0462" stop-color="#F5DA85"/>
<stop offset="0.5949" stop-color="#F5F5F2" stop-opacity="0.0308"/>
</linearGradient>
<linearGradient id="paint6_linear_179_748" x1="34.954" y1="58.1314" x2="34.954" y2="18.8071" gradientUnits="userSpaceOnUse">
<stop offset="0.004469" stop-color="#69361A"/>
<stop offset="1" stop-color="#A06327"/>
</linearGradient>
<linearGradient id="paint7_linear_179_748" x1="33.107" y1="58.1313" x2="33.107" y2="18.807" gradientUnits="userSpaceOnUse">
<stop offset="0.004469" stop-color="#69361A"/>
<stop offset="1" stop-color="#A06327"/>
</linearGradient>
<linearGradient id="paint8_linear_179_748" x1="32.7732" y1="58.1315" x2="32.7732" y2="18.8071" gradientUnits="userSpaceOnUse">
<stop offset="0.004469" stop-color="#69361A"/>
<stop offset="1" stop-color="#A06327"/>
</linearGradient>
<linearGradient id="paint9_linear_179_748" x1="38.5514" y1="58.1315" x2="38.5514" y2="18.8072" gradientUnits="userSpaceOnUse">
<stop offset="0.004469" stop-color="#69361A"/>
<stop offset="1" stop-color="#A06327"/>
</linearGradient>
</defs>
</svg>
