<svg width="16" height="17" viewBox="0 0 16 17" fill="none" xmlns="http://www.w3.org/2000/svg">
<path d="M8 16.5281C12.4183 16.5281 16 12.9464 16 8.52808C16 4.1098 12.4183 0.528076 8 0.528076C3.58172 0.528076 0 4.1098 0 8.52808C0 12.9464 3.58172 16.5281 8 16.5281Z" fill="url(#paint0_linear_168_764)"/>
<path d="M8 0.688076C12.3232 0.688076 15.84 4.20488 15.84 8.52808C15.84 12.8513 12.3232 16.3681 8 16.3681C3.6768 16.3681 0.16 12.8513 0.16 8.52808C0.16 4.20488 3.6768 0.688076 8 0.688076ZM8 0.528076C3.58171 0.528076 0 4.10979 0 8.52808C0 12.9464 3.58171 16.5281 8 16.5281C12.4183 16.5281 16 12.9464 16 8.52808C16 4.10979 12.4183 0.528076 8 0.528076Z" fill="url(#paint1_radial_168_764)"/>
<path d="M8.00004 14.7712C11.4481 14.7712 14.2432 11.976 14.2432 8.52799C14.2432 5.07997 11.4481 2.28479 8.00004 2.28479C4.55201 2.28479 1.75684 5.07997 1.75684 8.52799C1.75684 11.976 4.55201 14.7712 8.00004 14.7712Z" fill="url(#paint2_radial_168_764)"/>
<path d="M8.00004 14.7712C11.4481 14.7712 14.2432 11.976 14.2432 8.52799C14.2432 5.07997 11.4481 2.28479 8.00004 2.28479C4.55201 2.28479 1.75684 5.07997 1.75684 8.52799C1.75684 11.976 4.55201 14.7712 8.00004 14.7712Z" fill="url(#paint3_radial_168_764)"/>
<path d="M8.00004 2.44479C11.3546 2.44479 14.0832 5.17393 14.0832 8.52799C14.0832 11.882 11.3541 14.6112 8.00004 14.6112C4.64598 14.6112 1.91684 11.882 1.91684 8.52799C1.91684 5.17393 4.64552 2.44479 8.00004 2.44479ZM8.00004 2.28479C4.55181 2.28479 1.75684 5.08022 1.75684 8.52799C1.75684 11.9758 4.55226 14.7712 8.00004 14.7712C11.4483 14.7712 14.2432 11.9758 14.2432 8.52799C14.2432 5.08022 11.4483 2.28479 8.00004 2.28479Z" fill="url(#paint4_linear_168_764)"/>
<path d="M7.99988 2.28488C11.4481 2.28488 14.2431 5.08031 14.2431 8.52808C14.2431 11.9758 11.4481 14.7713 7.99988 14.7713C4.55165 14.7713 1.75668 11.9758 1.75668 8.52808C1.75668 5.08031 4.55165 2.28488 7.99988 2.28488ZM7.99988 2.12488C4.46891 2.12488 1.59668 4.99756 1.59668 8.52808C1.59668 12.0586 4.46937 14.9313 7.99988 14.9313C11.5304 14.9313 14.4031 12.0586 14.4031 8.52808C14.4031 4.99756 11.5309 2.12488 7.99988 2.12488Z" fill="url(#paint5_linear_168_764)"/>
<defs>
<linearGradient id="paint0_linear_168_764" x1="3.93369" y1="6.18039" x2="14.9098" y2="12.5175" gradientUnits="userSpaceOnUse">
<stop offset="5.5409e-07" stop-color="#FABC16"/>
<stop offset="0.199" stop-color="#FBE083"/>
<stop offset="0.3363" stop-color="#FBF7CA"/>
<stop offset="0.5682" stop-color="#FFD543"/>
<stop offset="0.7366" stop-color="#FFD133"/>
<stop offset="0.7684" stop-color="#FCC333"/>
<stop offset="0.8145" stop-color="#F9B633"/>
<stop offset="0.8746" stop-color="#F7AE33"/>
<stop offset="1" stop-color="#F7AC33"/>
</linearGradient>
<radialGradient id="paint1_radial_168_764" cx="0" cy="0" r="1" gradientUnits="userSpaceOnUse" gradientTransform="translate(8 8.52808) scale(8)">
<stop offset="0.162" stop-color="#FBF7CA"/>
<stop offset="0.5668" stop-color="#FFD133"/>
<stop offset="1" stop-color="#E99123"/>
</radialGradient>
<radialGradient id="paint2_radial_168_764" cx="0" cy="0" r="1" gradientUnits="userSpaceOnUse" gradientTransform="translate(8.00004 6.62818) scale(8.61195)">
<stop offset="0.162" stop-color="#FBF7CA"/>
<stop offset="0.5668" stop-color="#FFD133"/>
<stop offset="1" stop-color="#E99123"/>
</radialGradient>
<radialGradient id="paint3_radial_168_764" cx="0" cy="0" r="1" gradientUnits="userSpaceOnUse" gradientTransform="translate(7.9999 8.52794) scale(6.24329)">
<stop stop-color="#F6D878" stop-opacity="0"/>
<stop offset="0.8637" stop-color="#F5CA1F" stop-opacity="0"/>
<stop offset="1" stop-color="#F17B21"/>
</radialGradient>
<linearGradient id="paint4_linear_168_764" x1="8.00004" y1="14.7713" x2="8.00004" y2="2.28464" gradientUnits="userSpaceOnUse">
<stop stop-color="#69361B"/>
<stop offset="1" stop-color="#A06327"/>
</linearGradient>
<linearGradient id="paint5_linear_168_764" x1="7.99988" y1="14.9314" x2="7.99988" y2="2.12472" gradientUnits="userSpaceOnUse">
<stop offset="0.0462" stop-color="#F5DA85"/>
<stop offset="0.5949" stop-color="#F5F5F2" stop-opacity="0.0308"/>
</linearGradient>
</defs>
</svg>
